HIERARCHY
ROOT Hips
{
  OFFSET 45.4777 93.5152 -1.43375
  CHANNELS 6 Xposition Yposition Zposition Zrotation Xrotation Yrotation
  JOINT RightUpLeg
  {
    OFFSET -8.9458 -8.66707 0.101652
    CHANNELS 3 Zrotation Xrotation Yrotation
    JOINT RightLeg
    {
      OFFSET 0 -44.4227 1.3727
      CHANNELS 3 Zrotation Xrotation Yrotation
      JOINT RightFoot
      {
        OFFSET 0.253549 -42.0924 -1.46059
        CHANNELS 3 Zrotation Xrotation Yrotation
        JOINT RightToes
        {
          OFFSET 0.04 -4.41509 8.4991
          CHANNELS 3 Zrotation Xrotation Yrotation
          End Site
          {
            OFFSET -0.08 -0.137448 9.77979
          }
        }
      }
    }
  }
  JOINT Spine
  {
    OFFSET 0 11.8905 0
    CHANNELS 3 Zrotation Xrotation Yrotation
    JOINT Spine1
    {
      OFFSET 0 25.6574 0.127663
      CHANNELS 3 Zrotation Xrotation Yrotation
      JOINT HEad
      {
        OFFSET 0 8.73416 0.011341
        CHANNELS 3 Zrotation Xrotation Yrotation
        End Site
        {
          OFFSET -0.29 12.7742 2.51395
        }
      }
      JOINT LeftShoulder1
      {
        OFFSET 8.99 -0.362252 -0.22
        CHANNELS 3 Zrotation Xrotation Yrotation
        JOINT LeftArm
        {
          OFFSET 10.2827 -0.00338 0.322123
          CHANNELS 3 Zrotation Xrotation Yrotation
          JOINT LeftForeArm
          {
            OFFSET 32.7669 0.099144 -1.42434
            CHANNELS 3 Zrotation Xrotation Yrotation
            JOINT LeftHand
            {
              OFFSET 27.5643 0.085362 1.02216
              CHANNELS 3 Zrotation Xrotation Yrotation
              End Site
              {
                OFFSET 16.7443 -0.6 1.50291
              }
            }
          }
        }
      }
      JOINT RightShoulder
      {
        OFFSET -8.99 -0.362252 -0.22
        CHANNELS 3 Zrotation Xrotation Yrotation
        JOINT RightArm
        {
          OFFSET -10.2827 -0.00338 0.322123
          CHANNELS 3 Zrotation Xrotation Yrotation
          JOINT RightForeArm
          {
            OFFSET -32.8971 0.099144 -1.42434
            CHANNELS 3 Zrotation Xrotation Yrotation
            JOINT RightHand
            {
              OFFSET -27.4921 0.085362 1.02216
              CHANNELS 3 Zrotation Xrotation Yrotation
              End Site
              {
                OFFSET -16.6312 -0.6 1.50291
              }
            }
          }
        }
      }
    }
  }
  JOINT LeftUpLeg
  {
    OFFSET 8.9458 -8.66707 0.101652
    CHANNELS 3 Zrotation Xrotation Yrotation
    JOINT LeftLeg
    {
      OFFSET 0 -44.4227 1.3727
      CHANNELS 3 Zrotation Xrotation Yrotation
      JOINT LeftFoot
      {
        OFFSET -0.253549 -42.0924 -1.46059
        CHANNELS 3 Zrotation Xrotation Yrotation
        JOINT LeftToes
        {
          OFFSET -0.04 -4.41509 8.4991
          CHANNELS 3 Zrotation Xrotation Yrotation
          End Site
          {
            OFFSET 0.08 -0.047448 9.77979
          }
        }
      }
    }
  }
}
MOTION
Frames:	14
Frame Time:	0.0166667
46.8927 101.545 1.01061 -7.06137 32.829 143.119 -40.1316 3.42486 26.5531 29.2951 13.7707 -47.1142 57.6122 0.650314 -0.27517 0.0462048 0.000533403 0.662642 -24.5722 26.3828 6.053 2.25303e-006 0.01697 -0.00700037 -7.32791 -4.22737 21.9315 3.97569e-016 -3.97569e-016 -0 -141.289 -35.8663 -134.699 -85.3444 54.7621 -21.9851 32.6803 29.225 -1.73538 6.08916 10.8473 -4.10961 89.6327 4.37662 98.6103 -0.354352 46.9046 95.2178 27.3079 15.97 11.678 3.83244 -10.8219 10.3809 -42.9978 46.4374 69.4241 -25.5364 -1.49629 -1.81102 4.39965e-008 1.55958e-007 -4.82344e-009 
46.8292 102.213 1.44679 -8.84075 36.7773 141.044 -44.7739 5.00613 30.4004 27.1641 10.7468 -45.6962 63.8878 0.827591 -0.369325 0.0462048 0.000533403 0.662642 -27.9448 26.1758 7.81538 -0.005776 0.0213 -0.00700037 -9.08119 -4.73294 20.8126 1.14301e-015 -1.98785e-016 9.54166e-015 -131.011 -43.172 -128.499 -60.9821 50.876 -38.1152 30.5255 15.0637 -12.0398 3.0225 11.742 -1.90122 87.8715 10.8636 98.4325 -0.885061 47.066 94.4165 22.2423 15.237 -2.29266 5.37392 -16.3382 18.8468 -42.3792 59.3684 65.2138 -26.8984 -0.395713 -1.29319 4.39965e-008 1.55958e-007 -4.82344e-009 
46.7828 102.627 1.76111 -10.2401 40.3084 139.091 -49.1113 5.87571 33.738 25.8634 8.24383 -44.6568 69.4319 0.809344 -0.144224 0.0462048 0.000533403 0.662642 -30.3993 25.6834 9.06491 -0.0130744 0.02398 -0.00700037 -11.0132 -5.0604 19.9641 7.95139e-016 1.19271e-015 -6.36111e-015 -117.514 -50.2419 -117.191 -40.7333 41.3572 -49.4263 25.1909 27.8052 3.1505 -0.0575964 12.6522 0.300114 86.9083 15.0665 98.3973 -0.795028 46.8934 93.3844 26.1358 19.0182 2.23661 8.47526 -19.9518 26.9194 -33.0165 70.6145 55.2617 -51.8232 -0.0652283 -1.24895 4.39965e-008 1.55958e-007 -4.82344e-009 
46.8944 103.596 2.33639 -11.2973 43.4824 137.213 -51.6372 7.95955 36.361 21.1585 4.8392 -43.9259 74.9458 1.68327 -1.37601 0.0462048 0.000533403 0.662642 -32.0927 25.0377 9.9039 -0.0205736 0.0265 -0.00700037 -13.0691 -5.25391 19.3594 7.95139e-016 0 -0 -99.1408 -54.9257 -99.0523 -26.4746 27.6202 -54.5696 24.0253 21.1132 -14.65 -3.18752 13.5965 2.42249 86.4597 18.2211 98.4427 -0.381224 46.664 92.1166 23.5348 17.8747 -3.77718 14.1636 -27.114 37.5115 -19.7818 79.4793 44.3373 -32.9222 0.349329 -2.25575 4.39965e-008 1.55958e-007 -4.82344e-009 
47.0379 103.724 2.42187 -11.8372 46.4359 135.045 -53.0125 7.26513 36.9373 18.349 7.84156 -42.0654 81.3122 1.08643 -0.00865733 0.0462048 0.000533403 0.662642 -32.9033 24.1138 10.4797 0.194178 -0.199164 -0.00700041 -15.1959 -5.36065 18.9809 3.18055e-015 7.95139e-016 -0 -77.9458 -54.5932 -76.2044 -16.5641 11.387 -55.1851 17.0447 20.2697 3.92993 -6.27477 14.5979 4.54309 86.2487 20.8971 98.4561 6.94343 47.044 87.6073 21.0953 16.7781 15.2052 20.3182 -33.3837 47.0375 33.4391 81.2997 -4.68629 -33.2714 5.53439 1.7964 4.39965e-008 1.55958e-007 -4.82344e-009 
47.2188 103.664 2.55435 -12.0192 49.0994 132.854 -52.5243 6.50168 35.8927 13.2675 12.7537 -38.9441 88.14 0.466655 1.26093 0.0462048 0.000533403 0.662642 -33.2537 23.2442 10.8107 0.40953 -0.422849 -0.00700056 -17.3463 -5.42533 18.8058 -7.95139e-016 2.38542e-015 9.54166e-015 -60.9779 -48.7551 -55.6905 -9.36287 -6.14112 -53.124 9.23378 14.0611 -10.9019 -9.53194 15.6394 6.87 87.0724 26.5402 96.8552 6.53276 48.0749 86.0819 22.7656 18.1978 5.70694 28.2668 -38.1635 56.3313 63.5428 75.419 -31.7745 -35.0076 10.9799 5.79309 4.39965e-008 1.55958e-007 -4.82344e-009 
47.4717 103.399 2.68208 -11.7732 51.4844 130.564 -52.6772 5.71751 34.0128 10.7263 16.654 -37.1225 92.3933 0.079247 2.12218 0.0462048 0.000533403 0.662642 -33.626 23.6055 10.9886 0.612306 -0.555951 -0.0065323 -19.3228 -6.70735 18.5225 0 0 -0 -51.9726 -40.3481 -41.9107 -5.10861 -24.4516 -50.0106 9.55629 16.9456 2.53837 -12.1449 15.4514 8.76416 87.5499 30.4524 95.7679 6.40643 48.5884 85.1221 21.6217 21.3483 9.19899 37.2017 -40.9968 64.6919 70.5537 67.2557 -38.3372 -36.327 16.0188 9.77615 4.39965e-008 1.55958e-007 -4.82344e-009 
47.8008 102.96 2.7396 -10.995 53.5953 128.056 -53.9267 4.5757 31.4297 11.3073 20.1098 -36.6204 94.3882 -0.161535 2.74244 0.0462048 0.000533403 0.662642 -33.9678 24.9836 11.1543 0.833647 -0.790742 -0.00633529 -21.1496 -8.72326 18.0112 1.59028e-015 0 -3.18055e-015 -48.2518 -31.4277 -32.2 -5.53088 -43.0089 -49.0778 0.649954 16.9038 -19.0106 -13.8673 14.3267 10.0927 87.6337 33.2948 94.7073 6.30874 48.791 84.6779 22.2197 21.453 4.57506 46.268 -41.8141 71.4072 68.1493 59.8933 -38.115 -34.1385 20.6258 13.2633 4.39965e-008 1.55958e-007 -4.82344e-009 
48.1425 102.445 2.59626 -9.62967 55.4111 125.234 -55.2639 3.59354 29.1418 11.7607 22.9718 -35.8415 95.9022 -0.409629 3.34107 0.0462048 0.000533403 0.662642 -33.7467 26.0004 11.1874 1.07113 -1.12838 -0.00559631 -22.9249 -10.1205 17.7348 3.18055e-015 0 3.18055e-015 -47.4191 -25.519 -26.7254 -11.703 -58.3784 -50.1389 3.1842 15.8545 -0.545677 -14.8776 13.5051 11.3565 87.4698 35.3764 93.3332 6.0589 48.9824 84.7955 3.69456 20.5239 25.546 54.5412 -40.2034 75.3137 61.1576 54.1486 -34.6335 -38.8318 23.495 17.2549 4.39965e-008 1.55958e-007 -4.82344e-009 
48.4652 101.891 2.2625 -7.71689 56.9192 122.095 -56.9656 2.61494 27.2 12.9569 25.3665 -34.9456 96.6342 -0.689276 4.21049 0.0462048 0.000533403 0.662642 -32.9651 26.6618 11.1386 1.29114 -1.3643 -0.00350139 -24.6098 -11.0916 17.5803 -2.64834e-031 4.77083e-015 3.18055e-015 -47.6681 -22.0546 -23.0651 -21.1689 -67.2506 -56.4965 -5.47894 23.3137 -14.6714 -15.5 12.8908 12.5799 87.3189 36.8646 91.7922 5.72525 49.1403 85.2508 18.7877 23.2521 7.25415 61.8543 -37.4952 76.7444 51.2645 49.4072 -28.6122 -42.8353 25.9975 20.0631 4.39965e-008 1.55958e-007 -4.82344e-009 
48.6768 101.275 1.71175 -5.35856 58.1069 118.714 -59.0372 1.57501 25.5874 15.0361 27.4339 -34.0888 96.5696 -0.993786 5.36099 0.0462048 0.000533403 0.662642 -31.6827 26.9967 11.0242 1.51001 -1.59248 0.00171248 -26.1913 -11.5875 17.5602 8.82781e-032 -1.59028e-015 3.18055e-015 -48.3438 -20.2302 -20.0352 -32.9008 -71.9075 -65.9734 -0.758804 21.4503 -9.7842 -16.0936 12.6333 13.6325 87.3508 37.9783 90.3427 5.56281 49.1272 86.0831 7.96766 22.6566 19.4043 67.9592 -34.2027 75.8082 39.7547 44.5952 -20.0547 -47.9838 28.1723 22.3217 4.39965e-008 1.55958e-007 -4.82344e-009 
48.6571 100.498 1.03069 -2.69515 58.9594 115.219 -60.9591 0.296693 24.1396 17.2818 29.7663 -33.2003 96.0671 -1.34765 6.72995 0.0462048 0.000533403 0.662642 -29.9758 27.0481 10.8316 1.72835 -1.81794 0.00860252 -27.6549 -11.6631 17.6646 6.36111e-015 3.18055e-015 3.18055e-015 -49.4379 -19.3808 -17.26 -44.2375 -73.7785 -75.5383 -4.89608 25.161 -16.3922 -16.7845 12.824 14.6063 87.4867 38.7054 89.0142 5.51492 49.2052 86.748 17.5505 23.122 7.25703 73.1124 -31.8381 73.1036 27.9756 39.3155 -10.4149 -45.1909 31.4575 23.5848 4.39965e-008 1.55958e-007 -4.82344e-009 
48.2808 99.5672 0.0201147 0.121721 59.4696 111.766 -61.8535 -1.11015 22.604 17.4344 32.9908 -31.5774 96.2756 -1.7055 7.93845 0.0462048 0.000533403 0.662642 -27.9172 26.8755 10.5313 1.94631 -2.04043 0.0171304 -28.9918 -11.3949 17.8792 3.18055e-015 -1.59028e-015 -0 -50.9222 -19.076 -14.525 -52.8332 -74.1822 -82.6287 1.12667 11.2416 1.97877 -17.8877 13.3349 15.6149 88.0068 38.836 87.9298 5.99135 49.3348 87.2183 11.3253 22.8241 13.6943 76.7148 -29.7993 68.5648 17.7304 32.8484 0.65762 -45.7244 34.0967 25.4074 4.39965e-008 1.55958e-007 -4.82344e-009 
47.6877 98.6352 -1.39413 2.93584 59.642 108.525 -62.2813 -2.21553 21.1339 16.1452 35.8639 -29.4767 96.6481 -1.87714 8.67198 0.0462048 0.000533403 0.662642 -25.5992 26.5232 10.1041 2.16347 -2.26367 0.0262959 -30.1875 -10.8457 18.1941 -0 0 3.18055e-015 -52.7957 -19.0153 -11.8468 -58.1692 -73.7627 -86.7379 -1.64497 16.3115 -12.4205 -19.3406 14.1618 16.5472 88.7468 38.5323 87.152 6.98357 49.6432 87.1026 17.4594 22.1397 5.65708 78.9963 -28.9939 62.6941 12.031 28.5812 10.3526 -47.3066 36.8349 27.4853 4.39965e-008 1.55958e-007 -4.82344e-009 
